<?xml version="1.0" standalone="no"?>
<!DOCTYPE svg PUBLIC "-//W3C//DTD SVG 20010904//EN"
 "http://www.w3.org/TR/2001/REC-SVG-20010904/DTD/svg10.dtd">
<svg version="1.0" xmlns="http://www.w3.org/2000/svg"
 width="128.000000pt" height="128.000000pt" viewBox="0 0 128.000000 128.000000"
 preserveAspectRatio="xMidYMid meet">
<metadata>
Created by potrace 1.11, written by Peter Selinger 2001-2013
</metadata>
<g transform="translate(0.000000,128.000000) scale(0.100000,-0.100000)"
fill="#000000" stroke="none">
<path d="M483 1185 c-198 -55 -339 -195 -388 -382 -70 -270 89 -560 354 -644
100 -32 232 -30 336 5 69 24 85 26 117 17 29 -9 45 -8 77 5 45 18 71 8 71 -26
0 -28 -19 -36 -115 -49 -49 -7 -110 -21 -135 -32 -45 -20 -90 -55 -90 -71 0
-4 28 -8 63 -7 60 1 61 1 29 13 -32 11 -33 12 -15 27 28 25 77 38 165 45 94 8
138 35 138 85 0 26 -45 91 -78 112 -16 11 -6 27 17 27 18 0 129 -108 149 -146
8 -16 6 -28 -11 -59 -25 -44 -24 -44 -196 -75 -63 -11 -117 -23 -120 -26 -3
-4 53 -4 124 -2 146 5 177 15 212 67 35 51 30 90 -17 147 -39 47 -40 51 -41
126 -2 83 -2 84 -14 111 -4 10 -1 42 9 76 31 111 16 272 -35 374 -59 118 -173
219 -298 265 -84 31 -230 39 -308 17z m65 -15 c-77 -13 -143 -39 -205 -79 -77
-51 -125 -103 -169 -181 -19 -36 -32 -54 -28 -40 9 36 48 99 88 146 74 86 229
165 321 163 l40 -1 -47 -8z m62 -100 c25 -13 49 -37 65 -65 27 -45 26 -65 -1
-65 -16 0 -74 -85 -74 -108 0 -8 6 -12 15 -9 8 4 17 1 21 -5 4 -7 3 -8 -4 -4
-8 4 -16 -3 -22 -18 -5 -14 -14 -26 -19 -26 -5 0 -17 -7 -25 -16 -15 -14 -21
-13 -69 10 -28 13 -68 38 -87 55 -39 34 -36 52 14 81 36 20 66 68 66 107 0 20
7 36 17 42 14 8 15 12 4 25 -12 14 -9 16 23 16 20 0 54 -9 76 -20z m80 -195
c-6 -8 -9 -19 -5 -25 3 -5 1 -10 -4 -10 -15 0 -14 23 1 38 17 17 23 15 8 -3z
m315 -375 c48 -38 86 -70 84 -70 -2 0 -35 -9 -73 -20 -49 -14 -74 -17 -87 -9
-18 9 -18 11 -3 34 37 56 -46 115 -97 69 -14 -12 -23 -14 -30 -7 -8 8 4 16 39
27 28 10 56 24 62 32 7 7 14 14 15 14 1 0 42 -31 90 -70z m-90 -177 c-10 -102
-8 -102 -114 -29 -51 36 -96 67 -99 70 -3 3 7 35 22 70 l28 65 84 -62 85 -62
-6 -52z m185 65 c-1 -48 -9 -54 -81 -54 -58 -1 -69 2 -69 15 0 12 17 22 58 33
72 20 92 21 92 6z"/>
<path d="M478 903 c-21 -5 -22 -7 -6 -32 11 -18 14 -18 35 -4 18 12 21 19 12
29 -6 8 -14 13 -18 13 -3 -1 -14 -3 -23 -6z"/>
<path d="M556 795 c4 -8 10 -15 15 -15 5 0 9 7 9 15 0 8 -7 15 -15 15 -9 0
-12 -6 -9 -15z"/>
<path d="M517 793 c-12 -11 -8 -23 8 -23 8 0 15 7 15 15 0 16 -12 20 -23 8z"/>
</g>
</svg>
